<?xml version="1.0" encoding="utf-8"?><svg viewBox="0 0 50 50" xmlns="http://www.w3.org/2000/svg" xmlns:xlink="http://www.w3.org/1999/xlink"><style>:root>svg{display:none}:root>svg:target{display:block}</style><svg fill="none" viewBox="0 0 15 14" id="comments" xmlns="http://www.w3.org/2000/svg"><path fill-rule="evenodd" clip-rule="evenodd" d="M11.135 11v3L8.36 11H2.25a1.5 1.5 0 0 1-1.5-1.5V2A1.5 1.5 0 0 1 2.25.5h10.5a1.5 1.5 0 0 1 1.5 1.5v7.5a1.5 1.5 0 0 1-1.5 1.5h-1.615Z" fill="#BCBFC2"/></svg><svg fill="none" viewBox="0 0 15 15" id="dislike" xmlns="http://www.w3.org/2000/svg"><path fill-rule="evenodd" clip-rule="evenodd" d="M13.5 2.25a.75.75 0 0 1 .75.75v6.75a.75.75 0 0 1-.75.75h-.75a.75.75 0 0 1-.75-.75V3a.75.75 0 0 1 .75-.75h.75ZM1.977 10.79C1.302 10.79.75 10.2.75 9.478c.01-1.005.034-1.559.072-1.662.039-.104.67-1.696 1.892-4.777.184-.46 1.696-.788 2.187-.788H9.21c.675 0 1.665.591 1.665 1.314V10.5l-4.07 4.212-.003.002a.939.939 0 0 1-1.327.018c-.123-.197-.245-.46-.245-.722v-.197l.613-3.022H1.977Z" fill="#BCBFC2"/></svg><svg fill="none" viewBox="0 0 15 10" id="eye" xmlns="http://www.w3.org/2000/svg"><path fill-rule="evenodd" clip-rule="evenodd" d="M15 4.637S12 9.75 7.5 9.75 0 4.637 0 4.637 3 0 7.5 0 15 4.637 15 4.637ZM7.5 2.25a2.629 2.629 0 0 1 2.625 2.626A2.626 2.626 0 1 1 7.5 2.25Zm-.001 3.938c.724 0 1.31-.591 1.31-1.316 0-.726-.587-1.317-1.31-1.317-.724 0-1.311.59-1.311 1.316 0 .726.587 1.317 1.31 1.317Z" fill="#BCBFC2"/></svg><svg fill="none" viewBox="0 0 40 40" id="facebook-icon" xmlns="http://www.w3.org/2000/svg"><path fill-rule="evenodd" clip-rule="evenodd" d="M20 40c11.046 0 20-8.954 20-20S31.046 0 20 0 0 8.954 0 20s8.954 20 20 20Z" fill="#4267B2"/><path fill-rule="evenodd" clip-rule="evenodd" d="M24.623 11.004 22.225 11c-2.695 0-4.436 1.739-4.436 4.43v2.042h-2.412a.372.372 0 0 0-.377.367v2.96c0 .203.169.367.377.367h2.412v7.467c0 .203.168.367.377.367h3.146a.372.372 0 0 0 .378-.367v-7.467h2.82a.372.372 0 0 0 .377-.367v-2.96c0-.097-.04-.19-.11-.26a.383.383 0 0 0-.267-.107h-2.82v-1.731c0-.832.203-1.255 1.317-1.255h1.616a.372.372 0 0 0 .377-.367V11.37a.372.372 0 0 0-.377-.367Z" fill="#fff"/></svg><svg fill="none" viewBox="0 0 10 18" id="facebook-white" xmlns="http://www.w3.org/2000/svg"><path fill-rule="evenodd" clip-rule="evenodd" d="M9.623.004 7.225 0C4.53 0 2.789 1.739 2.789 4.43v2.042H.377A.372.372 0 0 0 0 6.84V9.8c0 .203.169.367.377.367H2.79v7.467c0 .203.169.367.377.367h3.146a.372.372 0 0 0 .378-.367v-7.467h2.82a.372.372 0 0 0 .376-.367l.002-2.96c0-.097-.04-.19-.11-.26a.383.383 0 0 0-.268-.107H6.69V4.741c0-.832.203-1.255 1.317-1.255h1.616A.372.372 0 0 0 10 3.119V.37a.372.372 0 0 0-.377-.367Z" fill="#fff"/></svg><svg fill="none" viewBox="0 0 18 16" id="heart-white" xmlns="http://www.w3.org/2000/svg"><path fill-rule="evenodd" clip-rule="evenodd" d="M16.119 1.947C15.227.95 14.04.4 12.779.4c-1.261 0-2.32.55-3.212 1.547L9 2.852l-.567-.905C7.541.95 6.483.4 5.221.4 3.959.4 2.773.95 1.88 1.947.04 4.007.04 7.36 1.881 9.42l6.599 6.342a.697.697 0 0 0 .524.239.69.69 0 0 0 .516-.24L16.12 9.42c1.841-2.06 1.841-5.412 0-7.472Z" fill="#fff"/></svg><svg fill="none" viewBox="0 0 40 40" id="instagramm-font" xmlns="http://www.w3.org/2000/svg"><path d="M39.5 20c0 10.77-8.73 19.5-19.5 19.5S.5 30.77.5 20 9.23.5 20 .5 39.5 9.23 39.5 20Z" stroke="#D9DADB"/><path fill-rule="evenodd" clip-rule="evenodd" d="M20 11.5c2.308 0 2.598.01 3.505.051.904.041 1.522.185 2.063.395a4.165 4.165 0 0 1 1.505.98c.473.473.764.947.98 1.506.21.54.355 1.159.396 2.063.041.907.051 1.197.051 3.505s-.01 2.598-.051 3.505c-.041.904-.185 1.522-.395 2.063a4.167 4.167 0 0 1-.98 1.505 4.167 4.167 0 0 1-1.506.98c-.54.21-1.159.355-2.064.396-.906.041-1.196.051-3.504.051s-2.598-.01-3.505-.051c-.904-.041-1.522-.185-2.063-.395a4.167 4.167 0 0 1-1.505-.98 4.165 4.165 0 0 1-.98-1.506c-.21-.54-.355-1.159-.396-2.064-.041-.906-.051-1.196-.051-3.504s.01-2.598.051-3.505c.041-.904.185-1.522.395-2.063a4.165 4.165 0 0 1 .98-1.505 4.165 4.165 0 0 1 1.506-.98c.54-.21 1.159-.355 2.063-.396.907-.041 1.197-.051 3.505-.051Zm-.003 11.33a2.833 2.833 0 1 0 0-5.665 2.833 2.833 0 0 0 0 5.665Zm0-7.196a4.363 4.363 0 1 1 0 8.727 4.363 4.363 0 0 1 0-8.727Zm5.859-.262a1.039 1.039 0 1 1-2.078 0 1.039 1.039 0 0 1 2.078 0Z" fill="#BCBFC2"/></svg><svg fill="none" viewBox="0 0 15 13" id="like" xmlns="http://www.w3.org/2000/svg"><path fill-rule="evenodd" clip-rule="evenodd" d="M1.5 12.75A.75.75 0 0 1 .75 12V5.25a.75.75 0 0 1 .75-.75h.75a.75.75 0 0 1 .75.75V12a.75.75 0 0 1-.75.75H1.5Zm11.523-8.54c.675 0 1.227.59 1.227 1.313-.01 1.005-.034 1.559-.072 1.662-.039.104-.67 1.696-1.892 4.777-.184.46-1.696.788-2.187.788H5.79c-.675 0-1.665-.591-1.665-1.314V4.5L8.195.288l.003-.002A.939.939 0 0 1 9.525.268c.123.197.245.46.245.722v.197L9.157 4.21h3.866Z" fill="#BCBFC2"/></svg><svg fill="none" viewBox="0 0 15 15" id="loading" xmlns="http://www.w3.org/2000/svg"><path fill-rule="evenodd" clip-rule="evenodd" d="M3.432 10.818A5.25 5.25 0 0 0 12.75 7.5h1.5a6.75 6.75 0 0 1-11.883 4.383l-.977.977a.375.375 0 0 1-.64-.265v-3.22C.75 9.168.918 9 1.125 9h3.22a.375.375 0 0 1 .265.64l-1.178 1.178Zm8.136-6.636A5.25 5.25 0 0 0 2.25 7.5H.75a6.75 6.75 0 0 1 11.883-4.383l.977-.977a.375.375 0 0 1 .64.265v3.22a.375.375 0 0 1-.375.375h-3.22a.375.375 0 0 1-.265-.64l1.178-1.178Z" fill="#BCBFC2"/></svg><svg fill="none" viewBox="0 0 18 18" id="pencil" xmlns="http://www.w3.org/2000/svg"><path fill-rule="evenodd" clip-rule="evenodd" d="M0 14.2V18h3.8l11-11.1L11 3.1 0 14.2ZM17.7 4c.4-.4.4-1 0-1.4L15.4.3c-.4-.4-1-.4-1.4 0l-1.8 1.8L16 5.9 17.7 4Z" fill="#BCBFC2"/></svg><svg fill="none" viewBox="0 0 16 18" id="person" xmlns="http://www.w3.org/2000/svg"><path fill-rule="evenodd" clip-rule="evenodd" d="M16 15.632C14.367 17.21 11.7 18 8 18s-6.367-.79-8-2.368C0 12.348 1.906 9.983 4.706 9 5.6 9.417 6.595 10 8 10s2.331-.607 3.294-1C14.057 9.997 16 12.375 16 15.632ZM8 8a4 4 0 1 1 0-8 4 4 0 0 1 0 8Z" fill="#BCBFC2"/></svg><svg fill="none" viewBox="0 0 20 20" id="picture-icon" xmlns="http://www.w3.org/2000/svg"><path fill-rule="evenodd" clip-rule="evenodd" d="M3 6V4a1 1 0 0 1 1-1h14a1 1 0 0 1 1 1v10a1 1 0 0 1-1 1h-2v2a1 1 0 0 1-1 1H1a1 1 0 0 1-1-1V7a1 1 0 0 1 1-1h2Zm12 9H4a1 1 0 0 1-1-1V7H1v10h14v-2ZM4 4v10h14V4H4Zm14 10H4v-1l3-3 3 2 4-4 4 5v1ZM9.5 9a1.5 1.5 0 1 1 0-3 1.5 1.5 0 0 1 0 3Z" fill="#fff"/></svg><svg fill="none" viewBox="0 0 50 50" id="play-big" xmlns="http://www.w3.org/2000/svg"><path opacity=".4" fill-rule="evenodd" clip-rule="evenodd" d="M25 50C11.193 50 0 38.806 0 25 0 11.192 11.193 0 25 0s25 11.192 25 25c0 13.807-11.193 25-25 25Zm0-2.5c12.426 0 22.5-10.074 22.5-22.5C47.5 12.573 37.426 2.5 25 2.5S2.5 12.573 2.5 25c0 12.426 10.074 22.5 22.5 22.5Z" fill="#fff"/><path fill-rule="evenodd" clip-rule="evenodd" d="M20.5 30.923V19.076c0-.457.383-.826.855-.826.164 0 .325.045.463.13l9.539 5.924a.81.81 0 0 1 0 1.39l-9.539 5.924a.874.874 0 0 1-1.182-.248.806.806 0 0 1-.136-.447Z" fill="#fff"/></svg><svg fill="none" viewBox="0 0 20 20" id="play-small" xmlns="http://www.w3.org/2000/svg"><path fill-rule="evenodd" clip-rule="evenodd" d="M10 20C4.477 20 0 15.522 0 10 0 4.477 4.477 0 10 0s10 4.477 10 10c0 5.522-4.477 10-10 10Zm0-1a9 9 0 1 0 0-18 9 9 0 0 0 0 18Z" fill="#BCBFC2"/><path fill-rule="evenodd" clip-rule="evenodd" d="M8.2 12.369v-4.74c0-.182.153-.33.342-.33.066 0 .13.019.185.053l3.816 2.37a.324.324 0 0 1 0 .555l-3.816 2.37a.35.35 0 0 1-.473-.1.323.323 0 0 1-.054-.178Z" fill="#262D33"/></svg><svg fill="none" viewBox="0 0 18 18" id="search" xmlns="http://www.w3.org/2000/svg"><path fill-rule="evenodd" clip-rule="evenodd" d="m17.435 16.395-4.289-4.455a7.238 7.238 0 0 0 1.707-4.673C14.853 3.26 11.59 0 7.577 0 3.564 0 .3 3.26.3 7.267c0 4.008 3.264 7.268 7.277 7.268a7.205 7.205 0 0 0 4.168-1.315l4.322 4.49c.181.187.424.29.684.29a.948.948 0 0 0 .684-1.605Zm-9.858-14.5a5.381 5.381 0 0 1 5.378 5.372 5.38 5.38 0 0 1-5.378 5.372 5.381 5.381 0 0 1-5.379-5.372 5.381 5.381 0 0 1 5.379-5.371Z" fill="#BCBFC2"/></svg><svg fill="none" viewBox="0 0 20 20" id="sun" xmlns="http://www.w3.org/2000/svg"><path fill-rule="evenodd" clip-rule="evenodd" d="M10 16.476c.415 0 .75.335.75.75v1.025c0 .415-.335.749-.75.749a.748.748 0 0 1-.75-.75v-1.024c0-.415.335-.75.75-.75Zm0-12.952a.748.748 0 0 1-.75-.75V1.75c0-.415.335-.749.75-.749s.75.334.75.75v1.024c0 .415-.335.75-.75.75Zm8.25 5.727c.416 0 .75.334.75.749s-.334.75-.75.75h-1.024a.748.748 0 0 1-.75-.75c0-.415.335-.75.75-.75h1.025Zm-15.476 0c.415 0 .75.334.75.749s-.335.75-.75.75H1.75A.748.748 0 0 1 1 10c0-.415.334-.75.75-.75h1.024ZM15.64 5.423a.75.75 0 1 1-1.062-1.062l.724-.723a.75.75 0 0 1 1.061 0 .75.75 0 0 1 0 1.061l-.723.724ZM4.36 14.577a.75.75 0 1 1 1.062 1.062l-.724.723a.75.75 0 0 1-1.061 0 .75.75 0 0 1 0-1.061l.723-.724Zm11.278 0 .723.724a.75.75 0 0 1 0 1.061.75.75 0 0 1-1.061 0l-.724-.723a.75.75 0 1 1 1.062-1.062ZM4.36 5.423l-.723-.724a.75.75 0 0 1 0-1.061.75.75 0 0 1 1.061 0l.724.723a.75.75 0 0 1 0 1.062.75.75 0 0 1-1.062 0ZM10 4.36A5.647 5.647 0 0 1 15.639 10 5.645 5.645 0 0 1 10 15.639 5.645 5.645 0 0 1 4.361 10 5.645 5.645 0 0 1 10 4.361Zm0 9.775A4.14 4.14 0 0 0 14.136 10 4.14 4.14 0 0 0 10 5.864 4.14 4.14 0 0 0 5.864 10 4.14 4.14 0 0 0 10 14.136Z" fill="#BCBFC2"/></svg><svg fill="none" viewBox="0 0 40 40" id="twitter-icon" xmlns="http://www.w3.org/2000/svg"><path fill-rule="evenodd" clip-rule="evenodd" d="M20 40c11.046 0 20-8.954 20-20S31.046 0 20 0 0 8.954 0 20s8.954 20 20 20Z" fill="#1DA1F2"/><path fill-rule="evenodd" clip-rule="evenodd" d="M28.979 14.363a.088.088 0 0 0-.105-.024 7.153 7.153 0 0 1-1.687.516 3.777 3.777 0 0 0 1.317-1.867.09.09 0 0 0-.03-.098.089.089 0 0 0-.101-.008 7.177 7.177 0 0 1-2.245.875 3.745 3.745 0 0 0-2.7-1.157c-2.066 0-3.746 1.696-3.746 3.78 0 .253.024.503.072.745A10.297 10.297 0 0 1 12.4 13.31a.09.09 0 0 0-.147.012 3.806 3.806 0 0 0-.506 1.9c0 1.16.521 2.243 1.41 2.958a3.556 3.556 0 0 1-1.307-.426.088.088 0 0 0-.088 0 .09.09 0 0 0-.045.077v.048a3.79 3.79 0 0 0 2.633 3.612c-.408.066-.83.062-1.245-.018a.09.09 0 0 0-.102.116 3.752 3.752 0 0 0 3.251 2.613 7.154 7.154 0 0 1-4.292 1.412c-.287 0-.577-.017-.861-.051a.09.09 0 0 0-.095.059.09.09 0 0 0 .036.106 10.38 10.38 0 0 0 5.653 1.673c6.568 0 10.492-5.385 10.492-10.591 0-.145-.002-.29-.008-.433a7.512 7.512 0 0 0 1.807-1.905.091.091 0 0 0-.006-.108Z" fill="#fff"/></svg><svg fill="none" viewBox="0 0 18 16" id="twitter-white" xmlns="http://www.w3.org/2000/svg"><path fill-rule="evenodd" clip-rule="evenodd" d="M17.979 2.363a.088.088 0 0 0-.105-.025 7.151 7.151 0 0 1-1.687.517A3.777 3.777 0 0 0 17.504.988a.09.09 0 0 0-.03-.098.089.089 0 0 0-.101-.008 7.177 7.177 0 0 1-2.245.875A3.745 3.745 0 0 0 12.428.6c-2.066 0-3.746 1.696-3.746 3.78 0 .253.024.503.072.745A10.298 10.298 0 0 1 1.4 1.31a.09.09 0 0 0-.147.012 3.806 3.806 0 0 0-.507 1.9c0 1.16.522 2.243 1.41 2.958a3.557 3.557 0 0 1-1.307-.426.088.088 0 0 0-.088 0 .09.09 0 0 0-.045.077v.048A3.79 3.79 0 0 0 3.349 9.49c-.408.066-.83.062-1.245-.018a.09.09 0 0 0-.102.116A3.752 3.752 0 0 0 5.253 12.2a7.155 7.155 0 0 1-4.292 1.412c-.287 0-.577-.017-.861-.051a.09.09 0 0 0-.095.059.09.09 0 0 0 .036.106A10.38 10.38 0 0 0 5.694 15.4c6.568 0 10.492-5.385 10.492-10.591 0-.145-.002-.29-.008-.433a7.51 7.51 0 0 0 1.807-1.905.091.091 0 0 0-.006-.108Z" fill="#fff"/></svg><svg fill="none" viewBox="0 0 40 40" id="youtube-icon" xmlns="http://www.w3.org/2000/svg"><path fill-rule="evenodd" clip-rule="evenodd" d="M20 40c11.046 0 20-8.954 20-20S31.046 0 20 0 0 8.954 0 20s8.954 20 20 20Z" fill="red"/><path fill-rule="evenodd" clip-rule="evenodd" d="M20 12.8c-2.898 0-6.66.73-6.66.73l-.009.01A2.77 2.77 0 0 0 11 16.277v7.445a2.778 2.778 0 0 0 2.338 2.743l.003.004s3.761.731 6.659.731c2.898 0 6.66-.73 6.66-.73A2.78 2.78 0 0 0 29 23.722v-7.446a2.778 2.778 0 0 0-2.338-2.744C26.66 13.53 22.898 12.8 20 12.8Zm-1.8 4.05L23.6 20l-5.4 3.15v-6.3Z" fill="#fff"/></svg></svg>